solid 
   facet normal -0.000000e+000 -2.225209e-001 -9.749279e-001
      outer loop
         vertex -5.000000e+001 -4.000000e+000 -4.000000e+000
         vertex -4.300000e+001 -4.000000e+000 -4.000000e+000
         vertex -4.300000e+001 -5.735535e+000 -3.603875e+000
      endloop
   endfacet
   facet normal -0.000000e+000 -9.009689e-001 -4.338837e-001
      outer loop
         vertex -4.300000e+001 -7.127326e+000 -2.493959e+000
         vertex -4.300000e+001 -7.899712e+000 -8.900837e-001
         vertex -5.000000e+001 -7.899712e+000 -8.900837e-001
      endloop
   endfacet
   facet normal 0.000000e+000 -9.009689e-001 4.338837e-001
      outer loop
         vertex -4.300000e+001 -7.899712e+000 8.900837e-001
         vertex -4.300000e+001 -7.127326e+000 2.493959e+000
         vertex -5.000000e+001 -7.127326e+000 2.493959e+000
      endloop
   endfacet
   facet normal 0.000000e+000 -2.225209e-001 9.749279e-001
      outer loop
         vertex -4.300000e+001 -5.735535e+000 3.603875e+000
         vertex -4.300000e+001 -4.000000e+000 4.000000e+000
         vertex -5.000000e+001 -4.000000e+000 4.000000e+000
      endloop
   endfacet
   facet normal 0.000000e+000 6.234898e-001 7.818315e-001
      outer loop
         vertex -4.300000e+001 -2.264465e+000 3.603875e+000
         vertex -4.300000e+001 -8.726740e-001 2.493959e+000
         vertex -5.000000e+001 -2.264465e+000 3.603875e+000
      endloop
   endfacet
   facet normal 0.000000e+000 1.000000e+000 -0.000000e+000
      outer loop
         vertex -4.300000e+001 -1.002884e-001 8.900837e-001
         vertex -4.300000e+001 -1.002884e-001 -8.900837e-001
         vertex -5.000000e+001 -1.002884e-001 -8.900837e-001
      endloop
   endfacet
   facet normal 0.000000e+000 6.234898e-001 -7.818315e-001
      outer loop
         vertex -4.300000e+001 -8.726740e-001 -2.493959e+000
         vertex -4.300000e+001 -2.264465e+000 -3.603875e+000
         vertex -5.000000e+001 -2.264465e+000 -3.603875e+000
      endloop
   endfacet
   facet normal 0.000000e+000 2.225210e-001 -9.749279e-001
      outer loop
         vertex -4.300000e+001 -4.000000e+000 -4.000000e+000
         vertex -5.000000e+001 -4.000000e+000 -4.000000e+000
         vertex -4.300000e+001 -2.264465e+000 -3.603875e+000
      endloop
   endfacet
   facet normal 0.000000e+000 9.009689e-001 -4.338837e-001
      outer loop
         vertex -5.000000e+001 -8.726740e-001 -2.493959e+000
         vertex -5.000000e+001 -1.002884e-001 -8.900837e-001
         vertex -4.300000e+001 -1.002884e-001 -8.900837e-001
      endloop
   endfacet
   facet normal -0.000000e+000 9.009689e-001 4.338837e-001
      outer loop
         vertex -5.000000e+001 -1.002884e-001 8.900837e-001
         vertex -5.000000e+001 -8.726740e-001 2.493959e+000
         vertex -4.300000e+001 -8.726740e-001 2.493959e+000
      endloop
   endfacet
   facet normal -0.000000e+000 2.225210e-001 9.749279e-001
      outer loop
         vertex -5.000000e+001 -2.264465e+000 3.603875e+000
         vertex -5.000000e+001 -4.000000e+000 4.000000e+000
         vertex -4.300000e+001 -4.000000e+000 4.000000e+000
      endloop
   endfacet
   facet normal 0.000000e+000 -6.234898e-001 7.818315e-001
      outer loop
         vertex -5.000000e+001 -5.735535e+000 3.603875e+000
         vertex -5.000000e+001 -7.127326e+000 2.493959e+000
         vertex -4.300000e+001 -7.127326e+000 2.493959e+000
      endloop
   endfacet
   facet normal 0.000000e+000 -1.000000e+000 0.000000e+000
      outer loop
         vertex -5.000000e+001 -7.899712e+000 8.900837e-001
         vertex -5.000000e+001 -7.899712e+000 -8.900837e-001
         vertex -4.300000e+001 -7.899712e+000 -8.900837e-001
      endloop
   endfacet
   facet normal 0.000000e+000 -6.234898e-001 -7.818315e-001
      outer loop
         vertex -5.000000e+001 -7.127326e+000 -2.493959e+000
         vertex -5.000000e+001 -5.735535e+000 -3.603875e+000
         vertex -4.300000e+001 -7.127326e+000 -2.493959e+000
      endloop
   endfacet
   facet normal -0.000000e+000 -2.225209e-001 -9.749279e-001
      outer loop
         vertex -5.000000e+001 -4.000000e+000 -4.000000e+000
         vertex -4.300000e+001 -5.735535e+000 -3.603875e+000
         vertex -5.000000e+001 -5.735535e+000 -3.603875e+000
      endloop
   endfacet
   facet normal 0.000000e+000 -2.225209e-001 9.749279e-001
      outer loop
         vertex -4.300000e+001 -5.735535e+000 3.603875e+000
         vertex -5.000000e+001 -4.000000e+000 4.000000e+000
         vertex -5.000000e+001 -5.735535e+000 3.603875e+000
      endloop
   endfacet
   facet normal 0.000000e+000 1.000000e+000 0.000000e+000
      outer loop
         vertex -4.300000e+001 -1.002884e-001 8.900837e-001
         vertex -5.000000e+001 -1.002884e-001 -8.900837e-001
         vertex -5.000000e+001 -1.002884e-001 8.900837e-001
      endloop
   endfacet
   facet normal 0.000000e+000 2.225210e-001 -9.749279e-001
      outer loop
         vertex -4.300000e+001 -2.264465e+000 -3.603875e+000
         vertex -5.000000e+001 -4.000000e+000 -4.000000e+000
         vertex -5.000000e+001 -2.264465e+000 -3.603875e+000
      endloop
   endfacet
   facet normal 0.000000e+000 2.225210e-001 9.749279e-001
      outer loop
         vertex -5.000000e+001 -2.264465e+000 3.603875e+000
         vertex -4.300000e+001 -4.000000e+000 4.000000e+000
         vertex -4.300000e+001 -2.264465e+000 3.603875e+000
      endloop
   endfacet
   facet normal 0.000000e+000 -6.234898e-001 -7.818315e-001
      outer loop
         vertex -4.300000e+001 -7.127326e+000 -2.493959e+000
         vertex -5.000000e+001 -5.735535e+000 -3.603875e+000
         vertex -4.300000e+001 -5.735535e+000 -3.603875e+000
      endloop
   endfacet
   facet normal -0.000000e+000 -1.000000e+000 -0.000000e+000
      outer loop
         vertex -4.300000e+001 -7.899712e+000 -8.900837e-001
         vertex -4.300000e+001 -7.899712e+000 8.900837e-001
         vertex -5.000000e+001 -7.899712e+000 8.900837e-001
      endloop
   endfacet
   facet normal 0.000000e+000 9.009689e-001 4.338837e-001
      outer loop
         vertex -4.300000e+001 -8.726740e-001 2.493959e+000
         vertex -4.300000e+001 -1.002884e-001 8.900837e-001
         vertex -5.000000e+001 -1.002884e-001 8.900837e-001
      endloop
   endfacet
   facet normal 0.000000e+000 6.234898e-001 -7.818315e-001
      outer loop
         vertex -5.000000e+001 -2.264465e+000 -3.603875e+000
         vertex -5.000000e+001 -8.726740e-001 -2.493959e+000
         vertex -4.300000e+001 -8.726740e-001 -2.493959e+000
      endloop
   endfacet
   facet normal 0.000000e+000 -9.009689e-001 4.338837e-001
      outer loop
         vertex -5.000000e+001 -7.127326e+000 2.493959e+000
         vertex -5.000000e+001 -7.899712e+000 8.900837e-001
         vertex -4.300000e+001 -7.899712e+000 8.900837e-001
      endloop
   endfacet
   facet normal 0.000000e+000 -9.009689e-001 -4.338837e-001
      outer loop
         vertex -4.300000e+001 -7.127326e+000 -2.493959e+000
         vertex -5.000000e+001 -7.899712e+000 -8.900837e-001
         vertex -5.000000e+001 -7.127326e+000 -2.493959e+000
      endloop
   endfacet
   facet normal -0.000000e+000 6.234898e-001 7.818315e-001
      outer loop
         vertex -4.300000e+001 -8.726740e-001 2.493959e+000
         vertex -5.000000e+001 -8.726740e-001 2.493959e+000
         vertex -5.000000e+001 -2.264465e+000 3.603875e+000
      endloop
   endfacet
   facet normal 0.000000e+000 -6.234898e-001 7.818315e-001
      outer loop
         vertex -4.300000e+001 -7.127326e+000 2.493959e+000
         vertex -4.300000e+001 -5.735535e+000 3.603875e+000
         vertex -5.000000e+001 -5.735535e+000 3.603875e+000
      endloop
   endfacet
   facet normal 0.000000e+000 9.009689e-001 -4.338837e-001
      outer loop
         vertex -5.000000e+001 -8.726740e-001 -2.493959e+000
         vertex -4.300000e+001 -1.002884e-001 -8.900837e-001
         vertex -4.300000e+001 -8.726740e-001 -2.493959e+000
      endloop
   endfacet
   facet normal 0.000000e+000 2.225210e-001 -9.749279e-001
      outer loop
         vertex 0.000000e+000 -4.000000e+000 -4.000000e+000
         vertex -7.000000e+000 -4.000000e+000 -4.000000e+000
         vertex -7.000000e+000 -2.264465e+000 -3.603875e+000
      endloop
   endfacet
   facet normal 0.000000e+000 9.009689e-001 -4.338837e-001
      outer loop
         vertex -7.000000e+000 -8.726740e-001 -2.493959e+000
         vertex -7.000000e+000 -1.002884e-001 -8.900837e-001
         vertex 0.000000e+000 -1.002884e-001 -8.900837e-001
      endloop
   endfacet
   facet normal -0.000000e+000 9.009689e-001 4.338837e-001
      outer loop
         vertex -7.000000e+000 -1.002884e-001 8.900837e-001
         vertex -7.000000e+000 -8.726740e-001 2.493959e+000
         vertex 0.000000e+000 -8.726740e-001 2.493959e+000
      endloop
   endfacet
   facet normal -0.000000e+000 2.225210e-001 9.749279e-001
      outer loop
         vertex -7.000000e+000 -2.264465e+000 3.603875e+000
         vertex -7.000000e+000 -4.000000e+000 4.000000e+000
         vertex 0.000000e+000 -4.000000e+000 4.000000e+000
      endloop
   endfacet
   facet normal 0.000000e+000 -6.234898e-001 7.818315e-001
      outer loop
         vertex -7.000000e+000 -5.735535e+000 3.603875e+000
         vertex -7.000000e+000 -7.127326e+000 2.493959e+000
         vertex 0.000000e+000 -7.127326e+000 2.493959e+000
      endloop
   endfacet
   facet normal 0.000000e+000 -1.000000e+000 0.000000e+000
      outer loop
         vertex -7.000000e+000 -7.899712e+000 8.900837e-001
         vertex -7.000000e+000 -7.899712e+000 -8.900837e-001
         vertex 0.000000e+000 -7.899712e+000 -8.900837e-001
      endloop
   endfacet
   facet normal 0.000000e+000 -6.234898e-001 -7.818315e-001
      outer loop
         vertex -7.000000e+000 -7.127326e+000 -2.493959e+000
         vertex -7.000000e+000 -5.735535e+000 -3.603875e+000
         vertex 0.000000e+000 -5.735535e+000 -3.603875e+000
      endloop
   endfacet
   facet normal -0.000000e+000 -2.225209e-001 -9.749279e-001
      outer loop
         vertex -7.000000e+000 -4.000000e+000 -4.000000e+000
         vertex 0.000000e+000 -4.000000e+000 -4.000000e+000
         vertex -7.000000e+000 -5.735535e+000 -3.603875e+000
      endloop
   endfacet
   facet normal -0.000000e+000 -9.009689e-001 -4.338837e-001
      outer loop
         vertex 0.000000e+000 -7.127326e+000 -2.493959e+000
         vertex 0.000000e+000 -7.899712e+000 -8.900837e-001
         vertex -7.000000e+000 -7.899712e+000 -8.900837e-001
      endloop
   endfacet
   facet normal 0.000000e+000 -9.009689e-001 4.338837e-001
      outer loop
         vertex 0.000000e+000 -7.899712e+000 8.900837e-001
         vertex 0.000000e+000 -7.127326e+000 2.493959e+000
         vertex -7.000000e+000 -7.127326e+000 2.493959e+000
      endloop
   endfacet
   facet normal 0.000000e+000 -2.225209e-001 9.749279e-001
      outer loop
         vertex 0.000000e+000 -5.735535e+000 3.603875e+000
         vertex 0.000000e+000 -4.000000e+000 4.000000e+000
         vertex -7.000000e+000 -4.000000e+000 4.000000e+000
      endloop
   endfacet
   facet normal 0.000000e+000 6.234898e-001 7.818315e-001
      outer loop
         vertex 0.000000e+000 -2.264465e+000 3.603875e+000
         vertex 0.000000e+000 -8.726740e-001 2.493959e+000
         vertex -7.000000e+000 -8.726740e-001 2.493959e+000
      endloop
   endfacet
   facet normal 0.000000e+000 1.000000e+000 -0.000000e+000
      outer loop
         vertex 0.000000e+000 -1.002884e-001 8.900837e-001
         vertex 0.000000e+000 -1.002884e-001 -8.900837e-001
         vertex -7.000000e+000 -1.002884e-001 -8.900837e-001
      endloop
   endfacet
   facet normal 0.000000e+000 6.234898e-001 -7.818315e-001
      outer loop
         vertex 0.000000e+000 -8.726740e-001 -2.493959e+000
         vertex 0.000000e+000 -2.264465e+000 -3.603875e+000
         vertex -7.000000e+000 -2.264465e+000 -3.603875e+000
      endloop
   endfacet
   facet normal 0.000000e+000 2.225210e-001 -9.749279e-001
      outer loop
         vertex 0.000000e+000 -4.000000e+000 -4.000000e+000
         vertex -7.000000e+000 -2.264465e+000 -3.603875e+000
         vertex 0.000000e+000 -2.264465e+000 -3.603875e+000
      endloop
   endfacet
   facet normal 0.000000e+000 2.225210e-001 9.749279e-001
      outer loop
         vertex -7.000000e+000 -2.264465e+000 3.603875e+000
         vertex 0.000000e+000 -4.000000e+000 4.000000e+000
         vertex 0.000000e+000 -2.264465e+000 3.603875e+000
      endloop
   endfacet
   facet normal 0.000000e+000 -6.234898e-001 -7.818315e-001
      outer loop
         vertex -7.000000e+000 -7.127326e+000 -2.493959e+000
         vertex 0.000000e+000 -5.735535e+000 -3.603875e+000
         vertex 0.000000e+000 -7.127326e+000 -2.493959e+000
      endloop
   endfacet
   facet normal 0.000000e+000 -9.009689e-001 -4.338837e-001
      outer loop
         vertex 0.000000e+000 -7.127326e+000 -2.493959e+000
         vertex -7.000000e+000 -7.899712e+000 -8.900837e-001
         vertex -7.000000e+000 -7.127326e+000 -2.493959e+000
      endloop
   endfacet
   facet normal 0.000000e+000 6.234898e-001 7.818315e-001
      outer loop
         vertex 0.000000e+000 -2.264465e+000 3.603875e+000
         vertex -7.000000e+000 -8.726740e-001 2.493959e+000
         vertex -7.000000e+000 -2.264465e+000 3.603875e+000
      endloop
   endfacet
   facet normal 0.000000e+000 6.234898e-001 -7.818315e-001
      outer loop
         vertex -7.000000e+000 -2.264465e+000 -3.603875e+000
         vertex -7.000000e+000 -8.726740e-001 -2.493959e+000
         vertex 0.000000e+000 -8.726740e-001 -2.493959e+000
      endloop
   endfacet
   facet normal 0.000000e+000 -2.225209e-001 9.749279e-001
      outer loop
         vertex -7.000000e+000 -4.000000e+000 4.000000e+000
         vertex -7.000000e+000 -5.735535e+000 3.603875e+000
         vertex 0.000000e+000 -5.735535e+000 3.603875e+000
      endloop
   endfacet
   facet normal -0.000000e+000 -2.225209e-001 -9.749279e-001
      outer loop
         vertex 0.000000e+000 -4.000000e+000 -4.000000e+000
         vertex 0.000000e+000 -5.735535e+000 -3.603875e+000
         vertex -7.000000e+000 -5.735535e+000 -3.603875e+000
      endloop
   endfacet
   facet normal 0.000000e+000 -6.234898e-001 7.818315e-001
      outer loop
         vertex 0.000000e+000 -7.127326e+000 2.493959e+000
         vertex 0.000000e+000 -5.735535e+000 3.603875e+000
         vertex -7.000000e+000 -5.735535e+000 3.603875e+000
      endloop
   endfacet
   facet normal 0.000000e+000 9.009689e-001 -4.338837e-001
      outer loop
         vertex 0.000000e+000 -1.002884e-001 -8.900837e-001
         vertex 0.000000e+000 -8.726740e-001 -2.493959e+000
         vertex -7.000000e+000 -8.726740e-001 -2.493959e+000
      endloop
   endfacet
   facet normal 0.000000e+000 -1.000000e+000 0.000000e+000
      outer loop
         vertex -7.000000e+000 -7.899712e+000 8.900837e-001
         vertex 0.000000e+000 -7.899712e+000 -8.900837e-001
         vertex 0.000000e+000 -7.899712e+000 8.900837e-001
      endloop
   endfacet
   facet normal 0.000000e+000 -9.009689e-001 4.338837e-001
      outer loop
         vertex -7.000000e+000 -7.899712e+000 8.900837e-001
         vertex 0.000000e+000 -7.899712e+000 8.900837e-001
         vertex -7.000000e+000 -7.127326e+000 2.493959e+000
      endloop
   endfacet
   facet normal -0.000000e+000 1.000000e+000 0.000000e+000
      outer loop
         vertex -7.000000e+000 -1.002884e-001 -8.900837e-001
         vertex -7.000000e+000 -1.002884e-001 8.900837e-001
         vertex 0.000000e+000 -1.002884e-001 8.900837e-001
      endloop
   endfacet
   facet normal 0.000000e+000 9.009689e-001 4.338837e-001
      outer loop
         vertex -7.000000e+000 -1.002884e-001 8.900837e-001
         vertex 0.000000e+000 -8.726740e-001 2.493959e+000
         vertex 0.000000e+000 -1.002884e-001 8.900837e-001
      endloop
   endfacet
   facet normal -1.000000e+000 -0.000000e+000 0.000000e+000
      outer loop
         vertex -7.000000e+000 -2.372936e+000 -3.378633e+000
         vertex -7.000000e+000 -2.264465e+000 -3.603875e+000
         vertex -7.000000e+000 -4.000000e+000 -4.000000e+000
      endloop
   endfacet
   facet normal -1.000000e+000 -0.000000e+000 0.000000e+000
      outer loop
         vertex -7.000000e+000 -3.440203e-001 -8.344535e-001
         vertex -7.000000e+000 -1.002884e-001 -8.900837e-001
         vertex -7.000000e+000 -8.726740e-001 -2.493959e+000
      endloop
   endfacet
   facet normal -1.000000e+000 0.000000e+000 -0.000000e+000
      outer loop
         vertex -7.000000e+000 -1.068132e+000 2.338087e+000
         vertex -7.000000e+000 -8.726740e-001 2.493959e+000
         vertex -7.000000e+000 -1.002884e-001 8.900837e-001
      endloop
   endfacet
   facet normal -1.000000e+000 0.000000e+000 0.000000e+000
      outer loop
         vertex -7.000000e+000 -4.000000e+000 3.750000e+000
         vertex -7.000000e+000 -4.000000e+000 4.000000e+000
         vertex -7.000000e+000 -2.264465e+000 3.603875e+000
      endloop
   endfacet
   facet normal -1.000000e+000 0.000000e+000 0.000000e+000
      outer loop
         vertex -7.000000e+000 -6.931868e+000 2.338087e+000
         vertex -7.000000e+000 -7.127326e+000 2.493959e+000
         vertex -7.000000e+000 -5.735535e+000 3.603875e+000
      endloop
   endfacet
   facet normal -1.000000e+000 0.000000e+000 0.000000e+000
      outer loop
         vertex -7.000000e+000 -7.655980e+000 -8.344535e-001
         vertex -7.000000e+000 -7.899712e+000 -8.900837e-001
         vertex -7.000000e+000 -7.899712e+000 8.900837e-001
      endloop
   endfacet
   facet normal -1.000000e+000 0.000000e+000 0.000000e+000
      outer loop
         vertex -7.000000e+000 -5.627064e+000 -3.378633e+000
         vertex -7.000000e+000 -5.735535e+000 -3.603875e+000
         vertex -7.000000e+000 -7.127326e+000 -2.493959e+000
      endloop
   endfacet
   facet normal -1.000000e+000 0.000000e+000 0.000000e+000
      outer loop
         vertex -7.000000e+000 -2.264465e+000 3.603875e+000
         vertex -7.000000e+000 -2.372936e+000 3.378633e+000
         vertex -7.000000e+000 -4.000000e+000 3.750000e+000
      endloop
   endfacet
   facet normal -1.000000e+000 0.000000e+000 0.000000e+000
      outer loop
         vertex -7.000000e+000 -1.002884e-001 8.900837e-001
         vertex -7.000000e+000 -3.440203e-001 8.344535e-001
         vertex -7.000000e+000 -1.068132e+000 2.338087e+000
      endloop
   endfacet
   facet normal -1.000000e+000 0.000000e+000 0.000000e+000
      outer loop
         vertex -7.000000e+000 -8.726740e-001 -2.493959e+000
         vertex -7.000000e+000 -1.068132e+000 -2.338087e+000
         vertex -7.000000e+000 -3.440203e-001 -8.344535e-001
      endloop
   endfacet
   facet normal -1.000000e+000 0.000000e+000 0.000000e+000
      outer loop
         vertex -7.000000e+000 -4.000000e+000 -4.000000e+000
         vertex -7.000000e+000 -4.000000e+000 -3.750000e+000
         vertex -7.000000e+000 -2.372936e+000 -3.378633e+000
      endloop
   endfacet
   facet normal -1.000000e+000 0.000000e+000 -0.000000e+000
      outer loop
         vertex -7.000000e+000 -7.127326e+000 -2.493959e+000
         vertex -7.000000e+000 -6.931868e+000 -2.338087e+000
         vertex -7.000000e+000 -5.627064e+000 -3.378633e+000
      endloop
   endfacet
   facet normal -1.000000e+000 -0.000000e+000 -0.000000e+000
      outer loop
         vertex -7.000000e+000 -7.899712e+000 8.900837e-001
         vertex -7.000000e+000 -7.655980e+000 8.344535e-001
         vertex -7.000000e+000 -7.655980e+000 -8.344535e-001
      endloop
   endfacet
   facet normal -1.000000e+000 -0.000000e+000 0.000000e+000
      outer loop
         vertex -7.000000e+000 -5.735535e+000 3.603875e+000
         vertex -7.000000e+000 -5.627064e+000 3.378633e+000
         vertex -7.000000e+000 -6.931868e+000 2.338087e+000
      endloop
   endfacet
   facet normal -1.000000e+000 0.000000e+000 0.000000e+000
      outer loop
         vertex -7.000000e+000 -1.068132e+000 -2.338087e+000
         vertex -7.000000e+000 -2.264465e+000 -3.603875e+000
         vertex -7.000000e+000 -2.372936e+000 -3.378633e+000
      endloop
   endfacet
   facet normal -1.000000e+000 0.000000e+000 -0.000000e+000
      outer loop
         vertex -7.000000e+000 -5.627064e+000 3.378633e+000
         vertex -7.000000e+000 -4.000000e+000 4.000000e+000
         vertex -7.000000e+000 -4.000000e+000 3.750000e+000
      endloop
   endfacet
   facet normal -1.000000e+000 0.000000e+000 0.000000e+000
      outer loop
         vertex -7.000000e+000 -4.000000e+000 -3.750000e+000
         vertex -7.000000e+000 -5.735535e+000 -3.603875e+000
         vertex -7.000000e+000 -5.627064e+000 -3.378633e+000
      endloop
   endfacet
   facet normal -1.000000e+000 0.000000e+000 -0.000000e+000
      outer loop
         vertex -7.000000e+000 -2.264465e+000 -3.603875e+000
         vertex -7.000000e+000 -1.068132e+000 -2.338087e+000
         vertex -7.000000e+000 -8.726740e-001 -2.493959e+000
      endloop
   endfacet
   facet normal -1.000000e+000 0.000000e+000 0.000000e+000
      outer loop
         vertex -7.000000e+000 -7.127326e+000 2.493959e+000
         vertex -7.000000e+000 -7.655980e+000 8.344535e-001
         vertex -7.000000e+000 -7.899712e+000 8.900837e-001
      endloop
   endfacet
   facet normal -1.000000e+000 0.000000e+000 0.000000e+000
      outer loop
         vertex -7.000000e+000 -4.000000e+000 -4.000000e+000
         vertex -7.000000e+000 -5.735535e+000 -3.603875e+000
         vertex -7.000000e+000 -4.000000e+000 -3.750000e+000
      endloop
   endfacet
   facet normal -1.000000e+000 0.000000e+000 -0.000000e+000
      outer loop
         vertex -7.000000e+000 -3.440203e-001 8.344535e-001
         vertex -7.000000e+000 -1.002884e-001 8.900837e-001
         vertex -7.000000e+000 -1.002884e-001 -8.900837e-001
      endloop
   endfacet
   facet normal -1.000000e+000 0.000000e+000 0.000000e+000
      outer loop
         vertex -7.000000e+000 -5.627064e+000 3.378633e+000
         vertex -7.000000e+000 -5.735535e+000 3.603875e+000
         vertex -7.000000e+000 -4.000000e+000 4.000000e+000
      endloop
   endfacet
   facet normal -1.000000e+000 0.000000e+000 0.000000e+000
      outer loop
         vertex -7.000000e+000 -8.726740e-001 2.493959e+000
         vertex -7.000000e+000 -1.068132e+000 2.338087e+000
         vertex -7.000000e+000 -2.372936e+000 3.378633e+000
      endloop
   endfacet
   facet normal -1.000000e+000 0.000000e+000 -0.000000e+000
      outer loop
         vertex -7.000000e+000 -7.899712e+000 -8.900837e-001
         vertex -7.000000e+000 -7.655980e+000 -8.344535e-001
         vertex -7.000000e+000 -6.931868e+000 -2.338087e+000
      endloop
   endfacet
   facet normal -1.000000e+000 0.000000e+000 0.000000e+000
      outer loop
         vertex -7.000000e+000 -3.440203e-001 8.344535e-001
         vertex -7.000000e+000 -1.002884e-001 -8.900837e-001
         vertex -7.000000e+000 -3.440203e-001 -8.344535e-001
      endloop
   endfacet
   facet normal -1.000000e+000 -0.000000e+000 0.000000e+000
      outer loop
         vertex -7.000000e+000 -7.899712e+000 -8.900837e-001
         vertex -7.000000e+000 -6.931868e+000 -2.338087e+000
         vertex -7.000000e+000 -7.127326e+000 -2.493959e+000
      endloop
   endfacet
   facet normal -1.000000e+000 0.000000e+000 -0.000000e+000
      outer loop
         vertex -7.000000e+000 -2.372936e+000 3.378633e+000
         vertex -7.000000e+000 -2.264465e+000 3.603875e+000
         vertex -7.000000e+000 -8.726740e-001 2.493959e+000
      endloop
   endfacet
   facet normal -1.000000e+000 0.000000e+000 -0.000000e+000
      outer loop
         vertex -7.000000e+000 -7.655980e+000 8.344535e-001
         vertex -7.000000e+000 -7.127326e+000 2.493959e+000
         vertex -7.000000e+000 -6.931868e+000 2.338087e+000
      endloop
   endfacet
   facet normal 1.000000e+000 0.000000e+000 -0.000000e+000
      outer loop
         vertex -4.300000e+001 -5.735535e+000 -3.603875e+000
         vertex -4.300000e+001 -4.000000e+000 -4.000000e+000
         vertex -4.300000e+001 -4.000000e+000 -3.750000e+000
      endloop
   endfacet
   facet normal 1.000000e+000 0.000000e+000 0.000000e+000
      outer loop
         vertex -4.300000e+001 -2.264465e+000 -3.603875e+000
         vertex -4.300000e+001 -8.726740e-001 -2.493959e+000
         vertex -4.300000e+001 -1.068132e+000 -2.338087e+000
      endloop
   endfacet
   facet normal 1.000000e+000 0.000000e+000 0.000000e+000
      outer loop
         vertex -4.300000e+001 -1.002884e-001 -8.900837e-001
         vertex -4.300000e+001 -1.002884e-001 8.900837e-001
         vertex -4.300000e+001 -3.440203e-001 8.344535e-001
      endloop
   endfacet
   facet normal 1.000000e+000 0.000000e+000 0.000000e+000
      outer loop
         vertex -4.300000e+001 -8.726740e-001 2.493959e+000
         vertex -4.300000e+001 -2.264465e+000 3.603875e+000
         vertex -4.300000e+001 -2.372936e+000 3.378633e+000
      endloop
   endfacet
   facet normal 1.000000e+000 -0.000000e+000 0.000000e+000
      outer loop
         vertex -4.300000e+001 -4.000000e+000 4.000000e+000
         vertex -4.300000e+001 -5.735535e+000 3.603875e+000
         vertex -4.300000e+001 -5.627064e+000 3.378633e+000
      endloop
   endfacet
   facet normal 1.000000e+000 -0.000000e+000 0.000000e+000
      outer loop
         vertex -4.300000e+001 -7.127326e+000 2.493959e+000
         vertex -4.300000e+001 -7.899712e+000 8.900837e-001
         vertex -4.300000e+001 -7.655980e+000 8.344535e-001
      endloop
   endfacet
   facet normal 1.000000e+000 0.000000e+000 -0.000000e+000
      outer loop
         vertex -4.300000e+001 -7.899712e+000 -8.900837e-001
         vertex -4.300000e+001 -7.127326e+000 -2.493959e+000
         vertex -4.300000e+001 -6.931868e+000 -2.338087e+000
      endloop
   endfacet
   facet normal 1.000000e+000 0.000000e+000 -0.000000e+000
      outer loop
         vertex -4.300000e+001 -5.627064e+000 3.378633e+000
         vertex -4.300000e+001 -4.000000e+000 3.750000e+000
         vertex -4.300000e+001 -4.000000e+000 4.000000e+000
      endloop
   endfacet
   facet normal 1.000000e+000 0.000000e+000 -0.000000e+000
      outer loop
         vertex -4.300000e+001 -2.372936e+000 3.378633e+000
         vertex -4.300000e+001 -1.068132e+000 2.338087e+000
         vertex -4.300000e+001 -8.726740e-001 2.493959e+000
      endloop
   endfacet
   facet normal 1.000000e+000 -0.000000e+000 0.000000e+000
      outer loop
         vertex -4.300000e+001 -3.440203e-001 8.344535e-001
         vertex -4.300000e+001 -3.440203e-001 -8.344535e-001
         vertex -4.300000e+001 -1.002884e-001 -8.900837e-001
      endloop
   endfacet
   facet normal 1.000000e+000 -0.000000e+000 0.000000e+000
      outer loop
         vertex -4.300000e+001 -1.068132e+000 -2.338087e+000
         vertex -4.300000e+001 -2.372936e+000 -3.378633e+000
         vertex -4.300000e+001 -2.264465e+000 -3.603875e+000
      endloop
   endfacet
   facet normal 1.000000e+000 0.000000e+000 0.000000e+000
      outer loop
         vertex -4.300000e+001 -4.000000e+000 -3.750000e+000
         vertex -4.300000e+001 -5.627064e+000 -3.378633e+000
         vertex -4.300000e+001 -5.735535e+000 -3.603875e+000
      endloop
   endfacet
   facet normal 1.000000e+000 0.000000e+000 0.000000e+000
      outer loop
         vertex -4.300000e+001 -6.931868e+000 -2.338087e+000
         vertex -4.300000e+001 -7.655980e+000 -8.344535e-001
         vertex -4.300000e+001 -7.899712e+000 -8.900837e-001
      endloop
   endfacet
   facet normal 1.000000e+000 0.000000e+000 0.000000e+000
      outer loop
         vertex -4.300000e+001 -7.655980e+000 8.344535e-001
         vertex -4.300000e+001 -6.931868e+000 2.338087e+000
         vertex -4.300000e+001 -7.127326e+000 2.493959e+000
      endloop
   endfacet
   facet normal 1.000000e+000 0.000000e+000 0.000000e+000
      outer loop
         vertex -4.300000e+001 -4.000000e+000 -3.750000e+000
         vertex -4.300000e+001 -4.000000e+000 -4.000000e+000
         vertex -4.300000e+001 -2.372936e+000 -3.378633e+000
      endloop
   endfacet
   facet normal 1.000000e+000 0.000000e+000 0.000000e+000
      outer loop
         vertex -4.300000e+001 -2.372936e+000 3.378633e+000
         vertex -4.300000e+001 -2.264465e+000 3.603875e+000
         vertex -4.300000e+001 -4.000000e+000 3.750000e+000
      endloop
   endfacet
   facet normal 1.000000e+000 -0.000000e+000 0.000000e+000
      outer loop
         vertex -4.300000e+001 -6.931868e+000 -2.338087e+000
         vertex -4.300000e+001 -7.127326e+000 -2.493959e+000
         vertex -4.300000e+001 -5.627064e+000 -3.378633e+000
      endloop
   endfacet
   facet normal 1.000000e+000 0.000000e+000 0.000000e+000
      outer loop
         vertex -4.300000e+001 -1.002884e-001 -8.900837e-001
         vertex -4.300000e+001 -3.440203e-001 -8.344535e-001
         vertex -4.300000e+001 -8.726740e-001 -2.493959e+000
      endloop
   endfacet
   facet normal 1.000000e+000 0.000000e+000 0.000000e+000
      outer loop
         vertex -4.300000e+001 -7.899712e+000 -8.900837e-001
         vertex -4.300000e+001 -7.655980e+000 -8.344535e-001
         vertex -4.300000e+001 -7.899712e+000 8.900837e-001
      endloop
   endfacet
   facet normal 1.000000e+000 0.000000e+000 0.000000e+000
      outer loop
         vertex -4.300000e+001 -4.000000e+000 3.750000e+000
         vertex -4.300000e+001 -2.264465e+000 3.603875e+000
         vertex -4.300000e+001 -4.000000e+000 4.000000e+000
      endloop
   endfacet
   facet normal 1.000000e+000 0.000000e+000 0.000000e+000
      outer loop
         vertex -4.300000e+001 -4.000000e+000 -4.000000e+000
         vertex -4.300000e+001 -2.264465e+000 -3.603875e+000
         vertex -4.300000e+001 -2.372936e+000 -3.378633e+000
      endloop
   endfacet
   facet normal 1.000000e+000 -0.000000e+000 0.000000e+000
      outer loop
         vertex -4.300000e+001 -5.735535e+000 3.603875e+000
         vertex -4.300000e+001 -7.127326e+000 2.493959e+000
         vertex -4.300000e+001 -6.931868e+000 2.338087e+000
      endloop
   endfacet
   facet normal 1.000000e+000 0.000000e+000 -0.000000e+000
      outer loop
         vertex -4.300000e+001 -1.068132e+000 2.338087e+000
         vertex -4.300000e+001 -3.440203e-001 8.344535e-001
         vertex -4.300000e+001 -1.002884e-001 8.900837e-001
      endloop
   endfacet
   facet normal 1.000000e+000 0.000000e+000 0.000000e+000
      outer loop
         vertex -4.300000e+001 -7.655980e+000 -8.344535e-001
         vertex -4.300000e+001 -7.655980e+000 8.344535e-001
         vertex -4.300000e+001 -7.899712e+000 8.900837e-001
      endloop
   endfacet
   facet normal 1.000000e+000 0.000000e+000 -0.000000e+000
      outer loop
         vertex -4.300000e+001 -1.068132e+000 -2.338087e+000
         vertex -4.300000e+001 -8.726740e-001 -2.493959e+000
         vertex -4.300000e+001 -3.440203e-001 -8.344535e-001
      endloop
   endfacet
   facet normal 1.000000e+000 0.000000e+000 0.000000e+000
      outer loop
         vertex -4.300000e+001 -5.735535e+000 -3.603875e+000
         vertex -4.300000e+001 -5.627064e+000 -3.378633e+000
         vertex -4.300000e+001 -7.127326e+000 -2.493959e+000
      endloop
   endfacet
   facet normal 1.000000e+000 0.000000e+000 0.000000e+000
      outer loop
         vertex -4.300000e+001 -1.002884e-001 8.900837e-001
         vertex -4.300000e+001 -8.726740e-001 2.493959e+000
         vertex -4.300000e+001 -1.068132e+000 2.338087e+000
      endloop
   endfacet
   facet normal 1.000000e+000 0.000000e+000 0.000000e+000
      outer loop
         vertex -4.300000e+001 -5.627064e+000 3.378633e+000
         vertex -4.300000e+001 -5.735535e+000 3.603875e+000
         vertex -4.300000e+001 -6.931868e+000 2.338087e+000
      endloop
   endfacet
   facet normal -1.000000e+000 0.000000e+000 0.000000e+000
      outer loop
         vertex -5.000000e+001 -2.264465e+000 -3.603875e+000
         vertex -5.000000e+001 -4.000000e+000 -4.000000e+000
         vertex -5.000000e+001 -5.735535e+000 -3.603875e+000
      endloop
   endfacet
   facet normal -1.000000e+000 0.000000e+000 0.000000e+000
      outer loop
         vertex -5.000000e+001 -7.127326e+000 -2.493959e+000
         vertex -5.000000e+001 -7.899712e+000 -8.900837e-001
         vertex -5.000000e+001 -5.735535e+000 -3.603875e+000
      endloop
   endfacet
   facet normal -1.000000e+000 0.000000e+000 0.000000e+000
      outer loop
         vertex -5.000000e+001 -7.127326e+000 2.493959e+000
         vertex -5.000000e+001 -5.735535e+000 3.603875e+000
         vertex -5.000000e+001 -7.899712e+000 8.900837e-001
      endloop
   endfacet
   facet normal -1.000000e+000 -0.000000e+000 -0.000000e+000
      outer loop
         vertex -5.000000e+001 -2.264465e+000 3.603875e+000
         vertex -5.000000e+001 -8.726740e-001 2.493959e+000
         vertex -5.000000e+001 -1.002884e-001 -8.900837e-001
      endloop
   endfacet
   facet normal -1.000000e+000 0.000000e+000 0.000000e+000
      outer loop
         vertex -5.000000e+001 -1.002884e-001 8.900837e-001
         vertex -5.000000e+001 -1.002884e-001 -8.900837e-001
         vertex -5.000000e+001 -8.726740e-001 2.493959e+000
      endloop
   endfacet
   facet normal -1.000000e+000 0.000000e+000 0.000000e+000
      outer loop
         vertex -5.000000e+001 -2.264465e+000 -3.603875e+000
         vertex -5.000000e+001 -5.735535e+000 -3.603875e+000
         vertex -5.000000e+001 -7.899712e+000 -8.900837e-001
      endloop
   endfacet
   facet normal -1.000000e+000 -0.000000e+000 0.000000e+000
      outer loop
         vertex -5.000000e+001 -2.264465e+000 3.603875e+000
         vertex -5.000000e+001 -1.002884e-001 -8.900837e-001
         vertex -5.000000e+001 -2.264465e+000 -3.603875e+000
      endloop
   endfacet
   facet normal -1.000000e+000 0.000000e+000 0.000000e+000
      outer loop
         vertex -5.000000e+001 -2.264465e+000 3.603875e+000
         vertex -5.000000e+001 -2.264465e+000 -3.603875e+000
         vertex -5.000000e+001 -7.899712e+000 -8.900837e-001
      endloop
   endfacet
   facet normal -1.000000e+000 0.000000e+000 0.000000e+000
      outer loop
         vertex -5.000000e+001 -5.735535e+000 3.603875e+000
         vertex -5.000000e+001 -4.000000e+000 4.000000e+000
         vertex -5.000000e+001 -7.899712e+000 -8.900837e-001
      endloop
   endfacet
   facet normal -1.000000e+000 -0.000000e+000 0.000000e+000
      outer loop
         vertex -5.000000e+001 -1.002884e-001 -8.900837e-001
         vertex -5.000000e+001 -8.726740e-001 -2.493959e+000
         vertex -5.000000e+001 -2.264465e+000 -3.603875e+000
      endloop
   endfacet
   facet normal -1.000000e+000 0.000000e+000 0.000000e+000
      outer loop
         vertex -5.000000e+001 -2.264465e+000 3.603875e+000
         vertex -5.000000e+001 -7.899712e+000 -8.900837e-001
         vertex -5.000000e+001 -4.000000e+000 4.000000e+000
      endloop
   endfacet
   facet normal -1.000000e+000 0.000000e+000 0.000000e+000
      outer loop
         vertex -5.000000e+001 -7.899712e+000 -8.900837e-001
         vertex -5.000000e+001 -7.899712e+000 8.900837e-001
         vertex -5.000000e+001 -5.735535e+000 3.603875e+000
      endloop
   endfacet
   facet normal 1.000000e+000 -0.000000e+000 -0.000000e+000
      outer loop
         vertex 0.000000e+000 -7.899712e+000 -8.900837e-001
         vertex 0.000000e+000 -5.735535e+000 -3.603875e+000
         vertex 0.000000e+000 -4.000000e+000 -4.000000e+000
      endloop
   endfacet
   facet normal 1.000000e+000 0.000000e+000 0.000000e+000
      outer loop
         vertex 0.000000e+000 -5.735535e+000 -3.603875e+000
         vertex 0.000000e+000 -7.899712e+000 -8.900837e-001
         vertex 0.000000e+000 -7.127326e+000 -2.493959e+000
      endloop
   endfacet
   facet normal 1.000000e+000 0.000000e+000 0.000000e+000
      outer loop
         vertex 0.000000e+000 -7.899712e+000 8.900837e-001
         vertex 0.000000e+000 -5.735535e+000 3.603875e+000
         vertex 0.000000e+000 -7.127326e+000 2.493959e+000
      endloop
   endfacet
   facet normal 1.000000e+000 0.000000e+000 0.000000e+000
      outer loop
         vertex 0.000000e+000 -1.002884e-001 -8.900837e-001
         vertex 0.000000e+000 -8.726740e-001 2.493959e+000
         vertex 0.000000e+000 -2.264465e+000 3.603875e+000
      endloop
   endfacet
   facet normal 1.000000e+000 0.000000e+000 -0.000000e+000
      outer loop
         vertex 0.000000e+000 -8.726740e-001 2.493959e+000
         vertex 0.000000e+000 -1.002884e-001 -8.900837e-001
         vertex 0.000000e+000 -1.002884e-001 8.900837e-001
      endloop
   endfacet
   facet normal 1.000000e+000 0.000000e+000 -0.000000e+000
      outer loop
         vertex 0.000000e+000 -7.899712e+000 -8.900837e-001
         vertex 0.000000e+000 -4.000000e+000 -4.000000e+000
         vertex 0.000000e+000 -2.264465e+000 -3.603875e+000
      endloop
   endfacet
   facet normal 1.000000e+000 0.000000e+000 0.000000e+000
      outer loop
         vertex 0.000000e+000 -7.899712e+000 8.900837e-001
         vertex 0.000000e+000 -1.002884e-001 -8.900837e-001
         vertex 0.000000e+000 -2.264465e+000 3.603875e+000
      endloop
   endfacet
   facet normal 1.000000e+000 0.000000e+000 0.000000e+000
      outer loop
         vertex 0.000000e+000 -5.735535e+000 3.603875e+000
         vertex 0.000000e+000 -7.899712e+000 8.900837e-001
         vertex 0.000000e+000 -2.264465e+000 3.603875e+000
      endloop
   endfacet
   facet normal 1.000000e+000 0.000000e+000 0.000000e+000
      outer loop
         vertex 0.000000e+000 -1.002884e-001 -8.900837e-001
         vertex 0.000000e+000 -7.899712e+000 8.900837e-001
         vertex 0.000000e+000 -7.899712e+000 -8.900837e-001
      endloop
   endfacet
   facet normal 1.000000e+000 0.000000e+000 0.000000e+000
      outer loop
         vertex 0.000000e+000 -5.735535e+000 3.603875e+000
         vertex 0.000000e+000 -2.264465e+000 3.603875e+000
         vertex 0.000000e+000 -4.000000e+000 4.000000e+000
      endloop
   endfacet
   facet normal 1.000000e+000 0.000000e+000 0.000000e+000
      outer loop
         vertex 0.000000e+000 -8.726740e-001 -2.493959e+000
         vertex 0.000000e+000 -7.899712e+000 -8.900837e-001
         vertex 0.000000e+000 -2.264465e+000 -3.603875e+000
      endloop
   endfacet
   facet normal 1.000000e+000 0.000000e+000 -0.000000e+000
      outer loop
         vertex 0.000000e+000 -7.899712e+000 -8.900837e-001
         vertex 0.000000e+000 -8.726740e-001 -2.493959e+000
         vertex 0.000000e+000 -1.002884e-001 -8.900837e-001
      endloop
   endfacet
   facet normal 0.000000e+000 -2.225209e-001 9.749279e-001
      outer loop
         vertex -7.000000e+000 -5.627064e+000 3.378633e+000
         vertex -7.000000e+000 -4.000000e+000 3.750000e+000
         vertex -4.300000e+001 -4.000000e+000 3.750000e+000
      endloop
   endfacet
   facet normal 0.000000e+000 -6.234898e-001 7.818315e-001
      outer loop
         vertex -4.300000e+001 -5.627064e+000 3.378633e+000
         vertex -4.300000e+001 -6.931868e+000 2.338087e+000
         vertex -7.000000e+000 -5.627064e+000 3.378633e+000
      endloop
   endfacet
   facet normal 0.000000e+000 -1.000000e+000 0.000000e+000
      outer loop
         vertex -4.300000e+001 -7.655980e+000 8.344535e-001
         vertex -4.300000e+001 -7.655980e+000 -8.344535e-001
         vertex -7.000000e+000 -7.655980e+000 -8.344535e-001
      endloop
   endfacet
   facet normal 0.000000e+000 -6.234898e-001 -7.818315e-001
      outer loop
         vertex -4.300000e+001 -6.931868e+000 -2.338087e+000
         vertex -4.300000e+001 -5.627064e+000 -3.378633e+000
         vertex -7.000000e+000 -5.627064e+000 -3.378633e+000
      endloop
   endfacet
   facet normal 0.000000e+000 2.225209e-001 -9.749279e-001
      outer loop
         vertex -4.300000e+001 -4.000000e+000 -3.750000e+000
         vertex -4.300000e+001 -2.372936e+000 -3.378633e+000
         vertex -7.000000e+000 -2.372936e+000 -3.378633e+000
      endloop
   endfacet
   facet normal 0.000000e+000 9.009689e-001 -4.338837e-001
      outer loop
         vertex -4.300000e+001 -1.068132e+000 -2.338087e+000
         vertex -4.300000e+001 -3.440203e-001 -8.344535e-001
         vertex -7.000000e+000 -3.440203e-001 -8.344535e-001
      endloop
   endfacet
   facet normal -0.000000e+000 9.009689e-001 4.338837e-001
      outer loop
         vertex -4.300000e+001 -3.440203e-001 8.344535e-001
         vertex -4.300000e+001 -1.068132e+000 2.338087e+000
         vertex -7.000000e+000 -1.068132e+000 2.338087e+000
      endloop
   endfacet
   facet normal -0.000000e+000 2.225209e-001 9.749279e-001
      outer loop
         vertex -4.300000e+001 -2.372936e+000 3.378633e+000
         vertex -4.300000e+001 -4.000000e+000 3.750000e+000
         vertex -7.000000e+000 -4.000000e+000 3.750000e+000
      endloop
   endfacet
   facet normal 0.000000e+000 6.234898e-001 7.818315e-001
      outer loop
         vertex -7.000000e+000 -2.372936e+000 3.378633e+000
         vertex -7.000000e+000 -1.068132e+000 2.338087e+000
         vertex -4.300000e+001 -1.068132e+000 2.338087e+000
      endloop
   endfacet
   facet normal 0.000000e+000 1.000000e+000 -0.000000e+000
      outer loop
         vertex -7.000000e+000 -3.440203e-001 8.344535e-001
         vertex -7.000000e+000 -3.440203e-001 -8.344535e-001
         vertex -4.300000e+001 -3.440203e-001 -8.344535e-001
      endloop
   endfacet
   facet normal 0.000000e+000 6.234898e-001 -7.818315e-001
      outer loop
         vertex -7.000000e+000 -1.068132e+000 -2.338087e+000
         vertex -7.000000e+000 -2.372936e+000 -3.378633e+000
         vertex -4.300000e+001 -2.372936e+000 -3.378633e+000
      endloop
   endfacet
   facet normal -0.000000e+000 -2.225209e-001 -9.749279e-001
      outer loop
         vertex -7.000000e+000 -4.000000e+000 -3.750000e+000
         vertex -7.000000e+000 -5.627064e+000 -3.378633e+000
         vertex -4.300000e+001 -5.627064e+000 -3.378633e+000
      endloop
   endfacet
   facet normal -0.000000e+000 -9.009689e-001 -4.338837e-001
      outer loop
         vertex -7.000000e+000 -6.931868e+000 -2.338087e+000
         vertex -7.000000e+000 -7.655980e+000 -8.344535e-001
         vertex -4.300000e+001 -7.655980e+000 -8.344535e-001
      endloop
   endfacet
   facet normal 0.000000e+000 -9.009689e-001 4.338837e-001
      outer loop
         vertex -7.000000e+000 -7.655980e+000 8.344535e-001
         vertex -7.000000e+000 -6.931868e+000 2.338087e+000
         vertex -4.300000e+001 -6.931868e+000 2.338087e+000
      endloop
   endfacet
   facet normal 0.000000e+000 -2.225209e-001 9.749279e-001
      outer loop
         vertex -7.000000e+000 -5.627064e+000 3.378633e+000
         vertex -4.300000e+001 -4.000000e+000 3.750000e+000
         vertex -4.300000e+001 -5.627064e+000 3.378633e+000
      endloop
   endfacet
   facet normal 0.000000e+000 -6.234898e-001 -7.818315e-001
      outer loop
         vertex -4.300000e+001 -6.931868e+000 -2.338087e+000
         vertex -7.000000e+000 -5.627064e+000 -3.378633e+000
         vertex -7.000000e+000 -6.931868e+000 -2.338087e+000
      endloop
   endfacet
   facet normal 0.000000e+000 9.009689e-001 4.338837e-001
      outer loop
         vertex -4.300000e+001 -3.440203e-001 8.344535e-001
         vertex -7.000000e+000 -1.068132e+000 2.338087e+000
         vertex -7.000000e+000 -3.440203e-001 8.344535e-001
      endloop
   endfacet
   facet normal 0.000000e+000 1.000000e+000 0.000000e+000
      outer loop
         vertex -7.000000e+000 -3.440203e-001 8.344535e-001
         vertex -4.300000e+001 -3.440203e-001 -8.344535e-001
         vertex -4.300000e+001 -3.440203e-001 8.344535e-001
      endloop
   endfacet
   facet normal 0.000000e+000 -9.009689e-001 -4.338837e-001
      outer loop
         vertex -7.000000e+000 -6.931868e+000 -2.338087e+000
         vertex -4.300000e+001 -7.655980e+000 -8.344535e-001
         vertex -4.300000e+001 -6.931868e+000 -2.338087e+000
      endloop
   endfacet
   facet normal 0.000000e+000 -9.009689e-001 4.338837e-001
      outer loop
         vertex -4.300000e+001 -6.931868e+000 2.338087e+000
         vertex -4.300000e+001 -7.655980e+000 8.344535e-001
         vertex -7.000000e+000 -7.655980e+000 8.344535e-001
      endloop
   endfacet
   facet normal 0.000000e+000 6.234898e-001 -7.818315e-001
      outer loop
         vertex -4.300000e+001 -2.372936e+000 -3.378633e+000
         vertex -4.300000e+001 -1.068132e+000 -2.338087e+000
         vertex -7.000000e+000 -1.068132e+000 -2.338087e+000
      endloop
   endfacet
   facet normal 0.000000e+000 2.225209e-001 9.749279e-001
      outer loop
         vertex -7.000000e+000 -4.000000e+000 3.750000e+000
         vertex -7.000000e+000 -2.372936e+000 3.378633e+000
         vertex -4.300000e+001 -2.372936e+000 3.378633e+000
      endloop
   endfacet
   facet normal 0.000000e+000 2.225209e-001 -9.749279e-001
      outer loop
         vertex -7.000000e+000 -2.372936e+000 -3.378633e+000
         vertex -7.000000e+000 -4.000000e+000 -3.750000e+000
         vertex -4.300000e+001 -4.000000e+000 -3.750000e+000
      endloop
   endfacet
   facet normal 0.000000e+000 -6.234898e-001 7.818315e-001
      outer loop
         vertex -7.000000e+000 -6.931868e+000 2.338087e+000
         vertex -7.000000e+000 -5.627064e+000 3.378633e+000
         vertex -4.300000e+001 -6.931868e+000 2.338087e+000
      endloop
   endfacet
   facet normal 0.000000e+000 9.009689e-001 -4.338837e-001
      outer loop
         vertex -4.300000e+001 -1.068132e+000 -2.338087e+000
         vertex -7.000000e+000 -3.440203e-001 -8.344535e-001
         vertex -7.000000e+000 -1.068132e+000 -2.338087e+000
      endloop
   endfacet
   facet normal 0.000000e+000 -1.000000e+000 0.000000e+000
      outer loop
         vertex -7.000000e+000 -7.655980e+000 8.344535e-001
         vertex -4.300000e+001 -7.655980e+000 8.344535e-001
         vertex -7.000000e+000 -7.655980e+000 -8.344535e-001
      endloop
   endfacet
   facet normal 0.000000e+000 -2.225209e-001 -9.749279e-001
      outer loop
         vertex -4.300000e+001 -5.627064e+000 -3.378633e+000
         vertex -4.300000e+001 -4.000000e+000 -3.750000e+000
         vertex -7.000000e+000 -4.000000e+000 -3.750000e+000
      endloop
   endfacet
   facet normal 0.000000e+000 6.234898e-001 7.818315e-001
      outer loop
         vertex -7.000000e+000 -2.372936e+000 3.378633e+000
         vertex -4.300000e+001 -1.068132e+000 2.338087e+000
         vertex -4.300000e+001 -2.372936e+000 3.378633e+000
      endloop
   endfacet
endsolid
